<?xml version="1.0" encoding="UTF-8"?>
<!-- Generator: Adobe Illustrator 23.1.1, SVG Export Plug-In . SVG Version: 6.00 Build 0)  -->
<svg xmlns="http://www.w3.org/2000/svg" xmlns:xlink="http://www.w3.org/1999/xlink" version="1.1" id="Calque_1" x="0px" y="0px" viewBox="0 0 336.5 222" style="enable-background:new 0 0 336.5 222;" xml:space="preserve" width="280" height="184">
<style type="text/css">
	.st0{fill:#E32213;}
	.st1{fill:#004890;}
</style>
<g>
	<path class="st0" d="M317.3,19.5c-7.9-5-17.2-6.4-27.2-4.6c4,0.8,7.8,2.3,11.3,4.6c26,16.6,25.4,67.2-1.4,112.9   c-18.7,31.9-45.1,53-68.3,57.2c25.9,5.3,61-17.6,84.2-57.2C342.7,86.7,343.4,36.1,317.3,19.5z"/>
	<path class="st1" d="M221.8,72.1c18.7-31.9,45.1-53,68.3-57.2c-25.9-5.3-61,17.6-84.2,57.2c-0.6,1-1.1,1.9-1.7,2.9h15.9   C220.7,74,221.2,73.1,221.8,72.1z"/>
	<polygon points="47.4,83.6 0,83.6 0,96.7 16.2,96.7 16.2,137.6 31.2,137.6 31.2,96.7 47.4,96.7  "/>
	<polygon points="95.5,124.9 66.5,124.9 66.5,116.3 90,116.3 90,104.5 66.5,104.5 66.5,96.3 95.1,96.3 95.1,83.6 51.6,83.6    51.6,137.6 95.5,137.6  "/>
	<path d="M94.8,110.8c0,16.1,12.4,28,27.9,28c12,0,18.8-5.2,23.9-12.2l-11.3-8c-3.2,3.9-6.6,6.6-12.2,6.6c-7.6,0-12.9-6.3-12.9-14.4   v-0.2c0-7.9,5.3-14.3,12.9-14.3c5.2,0,8.7,2.5,11.8,6.3l11.3-8.7c-4.8-6.6-11.9-11.3-22.9-11.3C106.9,82.6,94.8,95,94.8,110.8   C94.8,110.7,94.8,110.8,94.8,110.8z"/>
	<polygon points="163.7,117.1 183,117.1 183,137.6 197,137.6 197,83.6 183,83.6 183,103.8 163.7,103.8 163.7,83.6 148.7,83.6    148.7,137.6 163.7,137.6  "/>
	<polygon points="230.7,121.3 241.1,137.6 258.3,137.6 239.7,110 247.3,98.8 265.3,138 279.2,138 301.2,83.6 284.7,83.6    272.4,117.8 257.1,83.6 240.7,83.6 231,98.8 221.4,83.6 204.2,83.6 222,110.1 203.4,137.6 220.3,137.6  "/>
	<path d="M22.1,156.9L22.1,156.9c0-0.9-0.3-1.6-0.8-2.1c-0.6-0.6-1.5-0.9-2.6-0.9h-4.1v9h2V160h1.6l1.8,3h2.3l-2.2-3.2   C21.3,159.3,22.1,158.4,22.1,156.9z M20.1,157c0,0.8-0.6,1.3-1.5,1.3h-2v-2.6h2C19.5,155.7,20.1,156.2,20.1,157L20.1,157z"/>
	<polygon points="25.9,159.3 30.1,159.3 30.1,157.5 25.9,157.5 25.9,155.7 30.7,155.7 30.7,153.9 23.9,153.9 23.9,163 30.8,163    30.8,161.2 25.9,161.2  "/>
	<path d="M40.7,161.7v-3.9h-3.9v1.7h2v1.3c-0.5,0.4-1.2,0.5-1.9,0.5c-1.6,0-2.7-1.2-2.7-2.9l0,0c0-1.5,1.1-2.8,2.6-2.8   c1,0,1.7,0.3,2.4,0.9l1.3-1.5c-0.9-0.8-1.9-1.2-3.6-1.2c-2.7,0-4.7,2.1-4.7,4.7l0,0c0,2.7,1.9,4.7,4.8,4.7   C38.5,163.1,39.8,162.5,40.7,161.7z"/>
	<path d="M48.1,163h2.3l-2.2-3.2c1.1-0.4,1.9-1.3,1.9-2.8l0,0c0-0.8-0.3-1.6-0.8-2.1c-0.6-0.6-1.5-0.9-2.6-0.9h-4.1v9h2v-2.9h1.6   L48.1,163z M44.6,155.7h2c1,0,1.6,0.4,1.6,1.3l0,0c0,0.8-0.6,1.3-1.5,1.3h-2L44.6,155.7L44.6,155.7z"/>
	<path d="M56.4,153.8c-2.8,0-4.8,2.1-4.8,4.7l0,0c0,2.6,2,4.7,4.8,4.7s4.8-2.1,4.8-4.7l0,0C61.2,155.9,59.2,153.8,56.4,153.8z    M59.1,158.5c0,1.6-1.1,2.8-2.7,2.8c-1.6,0-2.7-1.3-2.7-2.8l0,0c0-1.5,1.1-2.8,2.7-2.8C58,155.6,59.1,156.9,59.1,158.5L59.1,158.5z   "/>
	<path d="M70.7,159v-5.1h-2v5.2c0,1.4-0.7,2.2-1.9,2.2c-1.2,0-2-0.8-2-2.2V154h-2v5.2c0,2.7,1.5,4,3.9,4   C69.2,163.1,70.7,161.8,70.7,159z"/>
	<path d="M79.9,157.1L79.9,157.1c0-1.9-1.3-3.2-3.5-3.2h-3.7v9h2v-2.7h1.5C78.2,160.3,79.9,159.2,79.9,157.1z M74.7,155.7h1.5   c1,0,1.6,0.5,1.6,1.4l0,0c0,0.8-0.6,1.4-1.6,1.4h-1.6L74.7,155.7L74.7,155.7z"/>
	<polygon points="88.2,155.7 88.2,153.9 81.3,153.9 81.3,163 88.2,163 88.2,161.2 83.3,161.2 83.3,159.3 87.6,159.3 87.6,157.5    83.3,157.5 83.3,155.7  "/>
	<polygon points="99,163 99,153.9 96.9,153.9 94.5,157.8 92.1,153.9 90,153.9 90,163 91.9,163 91.9,157.1 94.4,160.9 94.5,160.9    97,157.1 97,163  "/>
	<polygon points="108,155.7 108,153.9 101.2,153.9 101.2,163 108.1,163 108.1,161.2 103.2,161.2 103.2,159.3 107.4,159.3    107.4,157.5 103.2,157.5 103.2,155.7  "/>
	<polygon points="111.7,153.9 109.8,153.9 109.8,163 111.8,163 111.8,157.2 116.2,163 117.9,163 117.9,153.9 115.9,153.9    115.9,159.5  "/>
	<polygon points="124.1,163 124.1,155.8 126.9,155.8 126.9,153.9 119.4,153.9 119.4,155.8 122.1,155.8 122.1,163  "/>
	<path d="M140.6,158.4c0-2.5-2-4.5-4.8-4.5h-3.5v9h3.5C138.6,163,140.6,161,140.6,158.4L140.6,158.4z M138.5,158.5   c0,1.6-1.1,2.7-2.7,2.7h-1.5v-5.5h1.5C137.4,155.7,138.5,156.9,138.5,158.5L138.5,158.5z"/>
	<polygon points="149.2,155.7 149.2,153.9 142.4,153.9 142.4,163 149.2,163 149.2,161.2 144.3,161.2 144.3,159.3 148.6,159.3    148.6,157.5 144.3,157.5 144.3,155.7  "/>
	<path d="M154.7,157.6c-1.6-0.4-1.9-0.6-1.9-1.2l0,0c0-0.4,0.4-0.8,1.2-0.8s1.5,0.3,2.4,0.9l1-1.5c-0.9-0.7-2-1.1-3.4-1.1   c-1.8,0-3.2,1.1-3.2,2.7l0,0c0,1.8,1.2,2.3,3,2.8c1.5,0.4,1.8,0.6,1.8,1.1l0,0c0,0.5-0.5,0.9-1.3,0.9c-1,0-1.9-0.4-2.7-1.1   l-1.2,1.4c1.1,1,2.5,1.4,3.8,1.4c2,0,3.3-1,3.3-2.8l0,0C157.5,158.7,156.5,158,154.7,157.6z"/>
	<polygon points="165.1,159.3 169.4,159.3 169.4,157.5 165.1,157.5 165.1,155.7 170,155.7 170,153.9 163.1,153.9 163.1,163 170,163    170,161.2 165.1,161.2  "/>
	<polygon points="177.9,159.5 173.6,153.9 171.8,153.9 171.8,163 173.7,163 173.7,157.2 178.1,163 179.8,163 179.8,153.9    177.9,153.9  "/>
	<polygon points="186.1,163 186.1,155.8 188.8,155.8 188.8,153.9 181.3,153.9 181.3,155.8 184.1,155.8 184.1,163  "/>
	<path d="M195.8,163h2.3l-2.2-3.2c1.2-0.4,1.9-1.3,1.9-2.8l0,0c0-0.8-0.3-1.6-0.8-2.1c-0.6-0.6-1.5-0.9-2.6-0.9h-4.1v9h2v-2.9h1.6   L195.8,163z M192.3,155.7h2c1,0,1.6,0.4,1.6,1.3l0,0c0,0.8-0.6,1.3-1.5,1.3h-2v-2.6H192.3z"/>
	<path d="M206.4,163h2.1l-3.9-9.1h-1.8l-3.9,9.1h2l0.8-2h3.8L206.4,163z M202.5,159.2l1.2-2.9l1.2,2.9H202.5z"/>
	<polygon points="211.9,151.3 210,151.3 208.4,153.2 209.9,153.2 210.9,152.5 212,153.2 213.5,153.2  "/>
	<rect x="210" y="153.9" width="2" height="9"/>
	<polygon points="220.3,159.5 216,153.9 214.2,153.9 214.2,163 216.2,163 216.2,157.2 220.5,163 222.2,163 222.2,153.9 220.3,153.9     "/>
	<polygon points="226.4,159.3 230.6,159.3 230.6,157.5 226.4,157.5 226.4,155.7 231.2,155.7 231.2,153.9 224.4,153.9 224.4,163    231.3,163 231.3,161.2 226.4,161.2  "/>
	<path d="M232.9,153.9v5.2c0,2.7,1.5,4,3.9,4s4-1.3,4-4.1v-5.1h-2v5.2c0,1.4-0.7,2.2-2,2.2c-1.2,0-1.9-0.8-1.9-2.2V154L232.9,153.9   L232.9,153.9z"/>
	<path d="M250.3,156.9L250.3,156.9c0-0.9-0.3-1.6-0.8-2.1c-0.6-0.6-1.5-0.9-2.6-0.9h-4.1v9h2V160h1.6l1.9,2.9h2.3l-2.2-3.2   C249.6,159.3,250.3,158.4,250.3,156.9z M248.3,157c0,0.8-0.6,1.3-1.5,1.3h-2v-2.6h2C247.7,155.7,248.3,156.2,248.3,157L248.3,157z"/>
	<path d="M255.4,161.3c-1,0-1.9-0.4-2.7-1.1l-1.2,1.4c1.1,1,2.5,1.4,3.8,1.4c2,0,3.3-1,3.3-2.8l0,0c0-1.6-1-2.2-2.9-2.7   c-1.6-0.4-2-0.6-2-1.2l0,0c0-0.4,0.4-0.8,1.2-0.8s1.5,0.3,2.4,0.9l1-1.5c-0.9-0.7-2-1.1-3.4-1.1c-1.8,0-3.2,1.1-3.2,2.7l0,0   c0,1.8,1.2,2.3,3,2.8c1.5,0.4,1.8,0.6,1.8,1.1l0,0C256.7,161,256.2,161.3,255.4,161.3z"/>
	<polygon points="16.5,177.5 20.8,177.5 20.8,175.7 16.5,175.7 16.5,173.9 21.4,173.9 21.4,172.1 14.6,172.1 14.6,181.2 21.4,181.2    21.4,179.4 16.5,179.4  "/>
	<polygon points="22.6,174 25.3,174 25.3,181.2 27.3,181.2 27.3,174 30,174 30,172.1 22.6,172.1  "/>
	<path d="M39,172.1h-3.5v9H39c2.8,0,4.8-2,4.8-4.5l0,0C43.8,174.1,41.8,172.1,39,172.1z M41.7,176.7c0,1.6-1.1,2.7-2.7,2.7h-1.5V174   H39C40.6,173.9,41.7,175,41.7,176.7L41.7,176.7z"/>
	<polygon points="47.5,177.5 51.8,177.5 51.8,175.7 47.5,175.7 47.5,173.9 52.3,173.9 52.3,172.1 45.5,172.1 45.5,181.2 52.4,181.2    52.4,179.4 47.5,179.4  "/>
	<path d="M57.8,175.8c-1.6-0.4-2-0.6-2-1.2l0,0c0-0.4,0.4-0.8,1.2-0.8s1.5,0.3,2.4,0.9l1-1.5c-0.9-0.7-2-1.2-3.4-1.2   c-1.8,0-3.2,1.1-3.2,2.7l0,0c0,1.8,1.2,2.3,3,2.8c1.5,0.4,1.8,0.6,1.8,1.1l0,0c0,0.5-0.5,0.9-1.3,0.9c-1,0-1.9-0.4-2.7-1.1   l-1.2,1.4c1.1,1,2.5,1.4,3.8,1.4c1.9,0,3.3-1,3.3-2.8l0,0C60.7,176.9,59.7,176.2,57.8,175.8z"/>
	<polygon points="68.9,171.4 70.4,171.4 72.2,170.1 70.5,169.4  "/>
	<polygon points="68.3,177.5 72.5,177.5 72.5,175.7 68.3,175.7 68.3,173.9 73.1,173.9 73.1,172.1 66.3,172.1 66.3,181.2 73.2,181.2    73.2,179.4 68.3,179.4  "/>
	<path d="M78.5,172.1H75v9h3.5c2.8,0,4.8-2,4.8-4.5l0,0C83.3,174.1,81.3,172.1,78.5,172.1z M81.2,176.7c0,1.6-1.1,2.7-2.7,2.7H77   V174h1.5C80.1,173.9,81.2,175,81.2,176.7L81.2,176.7z"/>
	<path d="M90.8,177.3c0,1.4-0.7,2.2-2,2.2c-1.2,0-1.9-0.8-1.9-2.2v-5.1h-2v5.2c0,2.7,1.5,4,3.9,4s4-1.3,4-4.1v-5.1h-2V177.3z"/>
	<path d="M99.1,179.5c-1.6,0-2.6-1.3-2.6-2.8l0,0c0-1.6,1.1-2.8,2.6-2.8c0.9,0,1.6,0.4,2.3,1l1.3-1.5c-0.8-0.8-1.9-1.4-3.6-1.4   c-2.8,0-4.7,2.1-4.7,4.7l0,0c0,2.6,2,4.6,4.6,4.6c1.7,0,2.8-0.6,3.7-1.6l-1.3-1.3C100.8,179.1,100.1,179.5,99.1,179.5z"/>
	<path d="M107.4,172.1l-3.9,9.1h2l0.8-2h3.8l0.8,2h2.1l-3.9-9.1H107.4z M107.1,177.4l1.2-2.9l1.2,2.9H107.1z"/>
	<polygon points="112.7,174 115.5,174 115.5,181.2 117.5,181.2 117.5,174 120.2,174 120.2,172.1 112.7,172.1  "/>
	<polygon points="123.7,177.5 128,177.5 128,175.7 123.7,175.7 123.7,173.9 128.5,173.9 128.5,172.1 121.7,172.1 121.7,181.2    128.6,181.2 128.6,179.4 123.7,179.4  "/>
	<path d="M136.1,177.3c0,1.4-0.7,2.2-1.9,2.2s-1.9-0.8-1.9-2.2v-5.1h-2v5.2c0,2.7,1.5,4,3.9,4s4-1.3,4-4.1v-5.1h-2v5.1H136.1z"/>
	<path d="M147.7,175.1L147.7,175.1c0-0.9-0.3-1.6-0.8-2.1c-0.6-0.6-1.5-0.9-2.6-0.9h-4.1v9h2v-2.9h1.6l1.9,2.9h2.3l-2.2-3.2   C146.9,177.5,147.7,176.6,147.7,175.1z M145.7,175.2c0,0.8-0.6,1.3-1.5,1.3h-2v-2.6h2C145.1,173.9,145.7,174.4,145.7,175.2   L145.7,175.2z"/>
	<path d="M153.1,175.8c-1.6-0.4-1.9-0.6-1.9-1.2l0,0c0-0.4,0.4-0.8,1.2-0.8s1.5,0.3,2.4,0.9l1-1.5c-0.9-0.7-2-1.2-3.4-1.2   c-1.8,0-3.2,1.1-3.2,2.7l0,0c0,1.8,1.2,2.3,3,2.8c1.5,0.4,1.8,0.6,1.8,1.1l0,0c0,0.5-0.5,0.9-1.3,0.9c-1,0-1.9-0.4-2.7-1.1   l-1.2,1.4c1.1,1,2.5,1.4,3.8,1.4c2,0,3.3-1,3.3-2.8l0,0C156,176.9,155,176.2,153.1,175.8z"/>
	<path d="M165.1,172.1h-3.5v9h3.5c2.8,0,4.8-2,4.8-4.5l0,0C169.9,174.1,168,172.1,165.1,172.1z M167.8,176.7c0,1.6-1.1,2.7-2.7,2.7   h-1.5V174h1.5C166.8,173.9,167.8,175,167.8,176.7L167.8,176.7z"/>
	<polygon points="173.7,177.5 177.9,177.5 177.9,175.7 173.7,175.7 173.7,173.9 178.5,173.9 178.5,172.1 171.7,172.1 171.7,181.2    178.6,181.2 178.6,179.4 173.7,179.4  "/>
	<path d="M191.8,175.1L191.8,175.1c0-0.9-0.3-1.6-0.8-2.1c-0.6-0.6-1.5-0.9-2.6-0.9h-4.1v9h2v-2.9h1.6l1.9,2.9h2.3l-2.2-3.2   C191,177.5,191.8,176.6,191.8,175.1z M189.7,175.2c0,0.8-0.6,1.3-1.5,1.3h-2v-2.6h2C189.1,173.9,189.7,174.4,189.7,175.2   L189.7,175.2z"/>
	<path d="M199.3,177.3c0,1.4-0.7,2.2-2,2.2c-1.2,0-2-0.8-2-2.2v-5.1h-2v5.2c0,2.7,1.5,4,3.9,4s4-1.3,4-4.1v-5.1h-2v5.1H199.3z"/>
	<path d="M207.6,177.7h2v1.3c-0.5,0.4-1.1,0.5-1.9,0.5c-1.6,0-2.7-1.2-2.7-2.9l0,0c0-1.5,1.1-2.8,2.6-2.8c1,0,1.7,0.3,2.4,0.9   l1.3-1.5c-0.9-0.8-1.9-1.2-3.6-1.2c-2.7,0-4.7,2.1-4.7,4.7l0,0c0,2.7,1.9,4.6,4.8,4.6c1.7,0,2.9-0.6,3.9-1.4V176h-3.9v1.7H207.6z"/>
	<path d="M219.4,176.4c0.6-0.4,1.2-0.9,1.2-2l0,0c0-0.6-0.2-1.1-0.6-1.5c-0.5-0.5-1.3-0.8-2.4-0.8h-4.2v9h4.3c2,0,3.4-0.8,3.4-2.5   l0,0C221.1,177.4,220.5,176.8,219.4,176.4z M215.4,173.9h2c0.8,0,1.3,0.3,1.3,0.9l0,0c0,0.7-0.6,1-1.4,1h-1.8v-1.9H215.4z    M219.1,178.4c0,0.7-0.5,1-1.4,1h-2.4v-2h2.3C218.7,177.4,219.1,177.8,219.1,178.4L219.1,178.4z"/>
	<polygon points="225.9,175.8 223.7,172.1 221.4,172.1 224.9,177.6 224.9,181.2 226.9,181.2 226.9,177.6 230.4,172.1 228.1,172.1     "/>
</g>
</svg>
